<?xml version="1.0" encoding="utf-8"?>
<!-- Generator: Adobe Illustrator 15.0.0, SVG Export Plug-In . SVG Version: 6.00 Build 0)  -->
<!DOCTYPE svg PUBLIC "-//W3C//DTD SVG 1.1//EN" "http://www.w3.org/Graphics/SVG/1.1/DTD/svg11.dtd">
<svg version="1.1" id="Layer_1" xmlns="http://www.w3.org/2000/svg" xmlns:xlink="http://www.w3.org/1999/xlink" x="0px" y="0px"
	 width="501px" height="501px" viewBox="0 0 501 501" enable-background="new 0 0 501 501" xml:space="preserve">
<g id="Frons_gris">
	<rect x="0.5" y="0.5" fill="#E6D0CF" stroke="#FFFFFF" width="500" height="500"/>
</g>
<g id="Peu_Color">
	<rect x="0.5" y="330.5" fill="#FF5F56" width="500" height="170"/>
</g>
<g id="Guíes" display="none">
	<line display="inline" fill="none" stroke="#FFFFFF" x1="0.5" y1="110.5" x2="500.5" y2="110.5"/>
	<line display="inline" fill="none" stroke="#FFFFFF" x1="0.5" y1="130.5" x2="500.5" y2="130.5"/>
	<line display="inline" fill="none" stroke="#FFFFFF" x1="0.5" y1="190.5" x2="500.5" y2="190.5"/>
	<line display="inline" fill="none" stroke="#FFFFFF" x1="0.5" y1="410.5" x2="500.5" y2="410.5"/>
	<line display="inline" fill="none" stroke="#FFFFFF" x1="0.5" y1="250.5" x2="500.5" y2="250.5"/>
	<line display="inline" fill="none" stroke="#FFFFFF" x1="0.5" y1="350.5" x2="500.5" y2="350.5"/>
	<line display="inline" fill="none" stroke="#FFFFFF" x1="30.5" y1="0.5" x2="30.5" y2="500.5"/>
	<line display="inline" fill="none" stroke="#FFFFFF" x1="0.5" y1="30.5" x2="500.5" y2="30.5"/>
	<line display="inline" fill="none" stroke="#FFFFFF" x1="470.5" y1="0.5" x2="470.5" y2="500.5"/>
	<line display="inline" fill="none" stroke="#FFFFFF" x1="0.5" y1="470.5" x2="500.5" y2="470.5"/>
	<line display="inline" fill="none" stroke="#FFFFFF" x1="0.5" y1="330.5" x2="500.5" y2="330.5"/>
	<line display="inline" fill="none" stroke="#FFFFFF" x1="0.5" y1="310.5" x2="500.5" y2="310.5"/>
</g>
<text transform="matrix(1 0 0 1 26 103.3906)" font-family="'Helvetica'" font-size="100">Helvetica</text>
<text transform="matrix(1 0 0 1 30 173.3906)"><tspan x="0" y="0" font-family="'Helvetica'" font-size="60">Hb Mp Sx</tspan><tspan x="0" y="62" font-family="'Helvetica-Bold'" font-size="60">Hb Mp Sx</tspan><tspan x="0" y="124" font-family="'Helvetica-Oblique'" font-size="60">Hb Mp Sx</tspan></text>
<text transform="matrix(1 0 0 1 318 293.5439)" fill="#FFFFFF" font-family="'Helvetica'" font-size="300">a</text>
<text transform="matrix(1 0 0 1 30 401.6094)"><tspan x="0" y="0" font-family="'Helvetica'" font-size="56">àíü1234567890</tspan><tspan x="0" y="67.2" font-family="'Helvetica'" font-size="56">@?!(){},.;:-’”</tspan></text>
</svg>
